{"title":"Only Lovers Left Alive 2013 DVD9rip English Klam","uid":10410329,"size":1469376860,"categoryP":"video","categoryS":"movies","magnet":"?xt=urn:btih:4c23dc875e9c8bcc15fdfeb1412fc946ce0faff1&amp;dn=Only+Lovers+Left+Alive+2013+DVD9rip+English+Klam&amp;tr=udp%3A%2F%2Ftracker.openbittorrent.com%3A80&amp;tr=udp%3A%2F%2Fopen.demonii.com%3A1337&amp;tr=udp%3A%2F%2Ftracker.coppersurfer.tk%3A6969&amp;tr=udp%3A%2F%2Fexodus.desync.com%3A6969","seeders":1,"leechers":0,"uploader":"Klambake","files":-1,"time":1403522609,"description":"With: Tom Hiddleston, Tilda Swinton and Mia Wasikowska\n\nAdam (Tom Hiddleston) is een muzikant die na jaren zijn geliefde Eve (Tilda Swinton) weer ontmoet, nadat hij depressief en moe geworden is van de richting die de menselijke samenleving op gaat. Hun liefde wordt echter onderbroken en op de proef gesteld door haar wilde en oncontroleerbare zus Ava (Mia Wasikowska).\n\nA depressed musician reunites with his lover, though their romance - which has already endured several centuries - is disrupted by the arrival of uncontrollable younger sister.\n &lt;a href=&quot;\nhttp://www.imdb.com/title/tt1714915&quot; rel=&quot;nofollow&quot; target=&quot;_NEW&quot;&gt;\nhttp://www.imdb.com/title/tt1714915&lt;/a&gt;\t\n\n--------------------- Dutch Friends 4ever ---------------------\n---------------------------------------------------------------\n- Bezoek ook eens mijn vrienden op: &lt;a href=&quot; http://www.Film-Test.nl&quot; rel=&quot;nofollow&quot; target=&quot;_NEW&quot;&gt; http://www.Film-Test.nl&lt;/a&gt; --\n----- voor mijn Nederlandse Sync. ondertitels ---- en meer ----\n------- http://www.Film-Test.nl ---- Over Films en meer -------\n---------------------------------------------------------------\n\nGeneral:\n\nComplete name                            : Only Lovers Left AliveOnly Lovers Left Alive.avi\nFormat                                   : AVI\nFormat/Info                              : Audio Video Interleave\nFile size                                : 1.37 GiB\nDuration                                 : 1h 57mn\nOverall bit rate                         : 1 660 Kbps\n\nVideo:\n\nFormat                                   : MPEG-4 Visual\nFormat profile                           : Simple@L3\nFormat settings, BVOP                    : No\nFormat settings, QPel                    : No\nFormat settings, GMC                     : No warppoints\nFormat settings, Matrix                  : Default (H.263)\nCodec ID                                 : XVID\nCodec ID/Hint                            : XviD\nDuration                                 : 1h 57mn\nBit rate                                 : 1 202 Kbps\nWidth                                    : 704 pixels\nHeight                                   : 396 pixels\nDisplay aspect ratio                     : 16:9\nFrame rate                               : 25.000 fps\nColor space                              : YUV\nChroma subsampling                       : 4:2:0\nBit depth                                : 8 bits\nScan type                                : Progressive\nCompression mode                         : Lossy\nBits/(Pixel*Frame)                       : 0.172\nStream size                              : 1 014 MiB (72%)\nWriting library                          : XviD 1.1.2 (UTC 2006-11-01)\n\nAudio:\n\nFormat                                   : AC-3\nFormat/Info                              : Audio Coding 3\nMode extension                           : CM (complete main)\nFormat settings, Endianness              : Big\nCodec ID                                 : 2000\nDuration                                 : 1h 57mn\nSource duration                          : 1h 57mn\nBit rate mode                            : Constant\nBit rate                                 : 448 Kbps\nChannel(s)                               : 6 channels\nChannel positions                        : Front: L C R, Side: L R, LFE\nSampling rate                            : 48.0 KHz\nBit depth                                : 16 bits\nCompression mode                         : Lossy\nStream size                              : 378 MiB (27%)\nAlignment                                : Aligned on interleaves\nInterleave, duration                     : 32 ms (0.80 video frame)\n\n\n","torrent":{"xt":"urn:btih:4c23dc875e9c8bcc15fdfeb1412fc946ce0faff1","amp;dn":"Only+Lovers+Left+Alive+2013+DVD9rip+English+Klam","amp;tr":["udp%3A%2F%2Ftracker.openbittorrent.com%3A80","udp%3A%2F%2Fopen.demonii.com%3A1337","udp%3A%2F%2Ftracker.coppersurfer.tk%3A6969","udp%3A%2F%2Fexodus.desync.com%3A6969"],"infoHash":"4c23dc875e9c8bcc15fdfeb1412fc946ce0faff1","infoHashBuffer":{"type":"Buffer","data":[76,35,220,135,94,156,139,204,21,253,254,177,65,47,201,70,206,15,175,241]},"announce":[],"urlList":[]}}